# xmcd CD database file
#
# Track frame offsets:
#	150
#	18266
#	40813
#	59679
#	77874
#	97200
#	111197
#	139230
#	167064
#	195752
#	245780
#	277248
#	298285
#
# Disc length: 4473 seconds
#
# Revision: 0
# Processed by: cddbd v1.5.2PL0 Copyright (c) Steve Scherf et al.
# Submitted via: CDex 1.81
#
DISCID=c911770d
DTITLE=Michel Petrucciani - Pianism
DYEAR=1986
DGENRE=Jazz
TTITLE0=She did it again
TTITLE1=One for us
TTITLE2=Sahara
TTITLE3=13th
TTITLE4=Mr. J. K.
TTITLE5=One night at Ken and Jessica's
TTITLE6=It's a Dance
TTITLE7=La Champagne
TTITLE8=Brazilian Suite
TTITLE9=The prayer
TTITLE10=Our tune
TTITLE11=Face's face
TTITLE12=Here's that rainy day
EXTD=YEAR: 1986
EXTT0=
EXTT1=
EXTT2=
EXTT3=
EXTT4=
EXTT5=
EXTT6=
EXTT7=
EXTT8=
EXTT9=
EXTT10=
EXTT11=
EXTT12=
PLAYORDER=
